<?xml version="1.0" encoding="UTF-8" standalone="no"?>
<!-- Created with Inkscape (http://www.inkscape.org/) -->

<svg
   xmlns:osb="http://www.openswatchbook.org/uri/2009/osb"
   xmlns:dc="http://purl.org/dc/elements/1.1/"
   xmlns:cc="http://creativecommons.org/ns#"
   xmlns:rdf="http://www.w3.org/1999/02/22-rdf-syntax-ns#"
   xmlns:svg="http://www.w3.org/2000/svg"
   xmlns="http://www.w3.org/2000/svg"
   xmlns:xlink="http://www.w3.org/1999/xlink"
   xmlns:sodipodi="http://sodipodi.sourceforge.net/DTD/sodipodi-0.dtd"
   xmlns:inkscape="http://www.inkscape.org/namespaces/inkscape"
   width="60mm"
   height="60mm"
   viewBox="0 0 59.999998 59.999998"
   version="1.1"
   id="svg8"
   inkscape:version="0.92.4 (5da689c313, 2019-01-14)"
   sodipodi:docname="to do_vlad.svg">
  <defs
     id="defs2">
    <linearGradient
       inkscape:collect="always"
       id="linearGradient2524">
      <stop
         style="stop-color:#ffffff;stop-opacity:1;"
         offset="0"
         id="stop2520" />
      <stop
         style="stop-color:#ffffff;stop-opacity:0;"
         offset="1"
         id="stop2522" />
    </linearGradient>
    <linearGradient
       inkscape:collect="always"
       id="linearGradient6889">
      <stop
         style="stop-color:#000000;stop-opacity:1;"
         offset="0"
         id="stop6885" />
      <stop
         style="stop-color:#000000;stop-opacity:0;"
         offset="1"
         id="stop6887" />
    </linearGradient>
    <linearGradient
       id="linearGradient6534"
       osb:paint="solid">
      <stop
         style="stop-color:#ffccaa;stop-opacity:1;"
         offset="0"
         id="stop6532" />
    </linearGradient>
    <linearGradient
       id="linearGradient6039"
       osb:paint="solid">
      <stop
         style="stop-color:#000000;stop-opacity:1;"
         offset="0"
         id="stop6037" />
    </linearGradient>
    <linearGradient
       inkscape:collect="always"
       xlink:href="#linearGradient6039"
       id="linearGradient6041"
       x1="71.263214"
       y1="118.76827"
       x2="159.46931"
       y2="118.76827"
       gradientUnits="userSpaceOnUse" />
    <radialGradient
       inkscape:collect="always"
       xlink:href="#linearGradient6889"
       id="radialGradient6901"
       cx="13.089726"
       cy="72.36245"
       fx="13.089726"
       fy="72.36245"
       r="4.2172379"
       gradientTransform="matrix(1,0,0,0.88652464,-5.8008618,182.68548)"
       gradientUnits="userSpaceOnUse" />
    <radialGradient
       inkscape:collect="always"
       xlink:href="#linearGradient6889"
       id="radialGradient6903"
       cx="13.057459"
       cy="81.377052"
       fx="13.057459"
       fy="81.377052"
       r="4.2172375"
       gradientTransform="matrix(1,0,0,0.88652466,-5.8008618,183.70841)"
       gradientUnits="userSpaceOnUse" />
    <radialGradient
       inkscape:collect="always"
       xlink:href="#linearGradient6889"
       id="radialGradient6905"
       cx="13.284407"
       cy="90.580475"
       fx="13.284407"
       fy="90.580475"
       r="4.2172375"
       gradientTransform="matrix(1,0,0,0.88652466,-5.8008618,184.75277)"
       gradientUnits="userSpaceOnUse" />
    <radialGradient
       inkscape:collect="always"
       xlink:href="#linearGradient6889"
       id="radialGradient6907"
       cx="13.322044"
       cy="100.9893"
       fx="13.322044"
       fy="100.9893"
       r="4.2172375"
       gradientTransform="matrix(1,0,0,0.88652466,-5.8008618,185.93392)"
       gradientUnits="userSpaceOnUse" />
    <radialGradient
       inkscape:collect="always"
       xlink:href="#linearGradient6889"
       id="radialGradient6909"
       cx="13.226691"
       cy="111.07145"
       fx="13.226691"
       fy="111.07145"
       r="4.2172375"
       gradientTransform="matrix(1,0,0,0.88652466,-5.8008618,187.07799)"
       gradientUnits="userSpaceOnUse" />
    <linearGradient
       inkscape:collect="always"
       xlink:href="#linearGradient2524"
       id="linearGradient2526"
       x1="29.027622"
       y1="111.9819"
       x2="48.205418"
       y2="111.9819"
       gradientUnits="userSpaceOnUse" />
  </defs>
  <sodipodi:namedview
     id="base"
     pagecolor="#ffffff"
     bordercolor="#666666"
     borderopacity="1.0"
     inkscape:pageopacity="0.0"
     inkscape:pageshadow="2"
     inkscape:zoom="0.70710678"
     inkscape:cx="52.128633"
     inkscape:cy="560.4311"
     inkscape:document-units="px"
     inkscape:current-layer="layer1"
     showgrid="false"
     units="mm"
     inkscape:window-width="1920"
     inkscape:window-height="1017"
     inkscape:window-x="-8"
     inkscape:window-y="-8"
     inkscape:window-maximized="1"
     width="80mm" />
  <metadata
     id="metadata5">
    <rdf:RDF>
      <cc:Work
         rdf:about="">
        <dc:format>image/svg+xml</dc:format>
        <dc:type
           rdf:resource="http://purl.org/dc/dcmitype/StillImage" />
        <dc:title></dc:title>
      </cc:Work>
    </rdf:RDF>
  </metadata>
  <g
     inkscape:label="Layer 1"
     inkscape:groupmode="layer"
     id="layer1"
     transform="translate(0,-236.99998)">
    <rect
       id="rect3717"
       width="3.7041667"
       height="1.5875"
       x="220.66249"
       y="98.033325"
       rx="26.458332"
       ry="1.5875"
       style="stroke-width:0.26458332" />
    <flowRoot
       xml:space="preserve"
       id="flowRoot3750"
       style="font-style:normal;font-weight:normal;font-size:40px;line-height:1.25;font-family:sans-serif;letter-spacing:0px;word-spacing:0px;fill:#000000;fill-opacity:1;stroke:none"><flowRegion
         id="flowRegion3752"><rect
           id="rect3754"
           width="210"
           height="66"
           x="348"
           y="312.51965" /></flowRegion><flowPara
         id="flowPara3756" /></flowRoot>    <flowRoot
       xml:space="preserve"
       id="flowRoot3758"
       style="font-style:normal;font-weight:normal;font-size:40px;line-height:1.25;font-family:sans-serif;letter-spacing:0px;word-spacing:0px;fill:#000000;fill-opacity:1;stroke:none"><flowRegion
         id="flowRegion3760"><rect
           id="rect3762"
           width="182"
           height="108"
           x="322"
           y="286.51965" /></flowRegion><flowPara
         id="flowPara3764" /></flowRoot>    <flowRoot
       xml:space="preserve"
       id="flowRoot3766"
       style="font-style:normal;font-weight:normal;font-size:40px;line-height:1.25;font-family:sans-serif;letter-spacing:0px;word-spacing:0px;fill:#000000;fill-opacity:1;stroke:none"><flowRegion
         id="flowRegion3768"><rect
           id="rect3770"
           width="653.99994"
           height="378"
           x="180"
           y="-1.4803461" /></flowRegion><flowPara
         id="flowPara3772" /></flowRoot>    <flowRoot
       xml:space="preserve"
       id="flowRoot6065"
       style="font-style:normal;font-weight:normal;font-size:40px;line-height:1.25;font-family:sans-serif;letter-spacing:0px;word-spacing:0px;fill:#000000;fill-opacity:1;stroke:none"><flowRegion
         id="flowRegion6067"><rect
           id="rect6069"
           width="41.719299"
           height="83.792152"
           x="406.93994"
           y="278.23416" /></flowRegion><flowPara
         id="flowPara6071" /></flowRoot>    <rect
       style="fill:#5f8dd3;fill-opacity:1;stroke:none;stroke-width:0.16912772;stroke-linecap:round;stroke-linejoin:round;stroke-opacity:1"
       id="rect6552"
       width="47.360416"
       height="52.916668"
       x="6.6414433"
       y="240.2077"
       rx="15.946267"
       ry="1.0762711" />
    <g
       aria-label="T O DO"
       style="font-style:normal;font-weight:normal;font-size:10.58333302px;line-height:1.25;font-family:sans-serif;letter-spacing:0px;word-spacing:0px;fill:#000000;fill-opacity:1;stroke:none;stroke-width:0.26458332"
       id="text6061-5"
       transform="translate(-87.292623,183.95368)">
      <path
         d="m 109.59777,67.077507 v 12.067481 h -5.03535 V 67.077507 h -3.85713 v -4.861718 h 12.73721 v 4.861718 z"
         style="font-style:normal;font-variant:normal;font-weight:normal;font-stretch:normal;font-size:25.39999962px;line-height:0.55000001;font-family:'Bauhaus 93';-inkscape-font-specification:'Bauhaus 93, ';fill:#ff9955;stroke-width:0.26458332"
         id="path6088-1"
         inkscape:connector-curvature="0" />
      <path
         d="m 109.58329,83.999345 -0.004,12.215821 -4.99036,-0.08219 -0.0265,-16.987983 4.2392,-0.0074 c 2.87734,-0.005 5.13043,0.65319 6.75927,1.95957 1.93477,1.562695 2.90215,3.683496 2.90215,6.362403 0,2.563151 -0.82682,4.655012 -2.48047,6.275585 -1.90118,1.435216 -1.82178,1.638164 -4.46897,2.364714 -0.29502,0.08097 -0.18069,0.07701 -0.87523,0.04394 l 0.0702,-4.974028 0.84755,-0.0501 c 0,0 3.03382,-1.064129 3.03382,-3.519793 0,-2.306836 -2.121,-3.600571 -5.00661,-3.600571 z"
         style="word-spacing:-0.43920833px;fill:#ff9955"
         id="path6092-6"
         inkscape:connector-curvature="0"
         sodipodi:nodetypes="ccccscscsccsssc" />
      <path
         inkscape:connector-curvature="0"
         id="path6177-3"
         style="font-style:normal;font-variant:normal;font-weight:normal;font-stretch:normal;font-size:25.39999962px;line-height:0.55000001;font-family:'Bauhaus 93';-inkscape-font-specification:'Bauhaus 93, ';fill:#ff9955;stroke-width:0.26458332"
         d="m 109.59777,67.077507 v 12.067481 h -5.03535 V 67.077507 h -3.85713 v -4.861718 h 12.73721 v 4.861718 z" />
      <path
         sodipodi:nodetypes="ccccscscsccsssc"
         inkscape:connector-curvature="0"
         id="path6179-7"
         style="word-spacing:-0.43920833px;fill:#ff9955"
         d="m 109.58329,83.999345 -0.004,12.215821 -4.99036,-0.08219 -0.0265,-16.987983 4.2392,-0.0074 c 2.87734,-0.005 5.13043,0.65319 6.75927,1.95957 1.93477,1.562695 2.90215,3.683496 2.90215,6.362403 0,2.563151 -0.82682,4.655012 -2.48047,6.275585 -1.90118,1.435216 -1.82178,1.638164 -4.46897,2.364714 -0.29502,0.08097 -0.18069,0.07701 -0.87523,0.04394 l 0.0702,-4.974028 0.84755,-0.0501 c 0,0 3.03382,-1.064129 3.03382,-3.519793 0,-2.306836 -2.121,-3.600571 -5.00661,-3.600571 z" />
      <path
         d="m 109.59777,67.077507 v 12.067481 h -5.03535 V 67.077507 h -3.85713 l -1.092722,-3.746921 1.092722,-1.114797 h 12.73721 v 4.861718 z"
         style="font-style:normal;font-variant:normal;font-weight:normal;font-stretch:normal;font-size:25.39999962px;line-height:0.55000001;font-family:'Bauhaus 93';-inkscape-font-specification:'Bauhaus 93, ';fill:#ff9955;stroke-width:0.26458332"
         id="path6212-1"
         inkscape:connector-curvature="0"
         sodipodi:nodetypes="cccccccccc" />
      <path
         d="m 109.58329,83.999345 -0.004,12.215821 -4.99036,-0.08219 -0.0265,-16.987983 4.2392,-0.0074 c 2.87734,-0.005 5.13043,0.65319 6.75927,1.95957 1.93477,1.562695 2.90215,3.683496 2.90215,6.362403 0,2.563151 -0.82682,4.655012 -2.48047,6.275585 -1.90118,1.435216 -1.82178,1.638164 -4.46897,2.364714 -0.29502,0.08097 -0.18069,0.07701 -0.87523,0.04394 l 0.0702,-4.974028 0.84755,-0.0501 c 0,0 3.03382,-1.064129 3.03382,-3.519793 0,-2.306836 -2.121,-3.600571 -5.00661,-3.600571 z"
         style="word-spacing:-0.43920833px;fill:#ff9955"
         id="path6214-5"
         inkscape:connector-curvature="0"
         sodipodi:nodetypes="ccccscscsccsssc" />
      <path
         inkscape:connector-curvature="0"
         id="path6226-71"
         style="font-style:normal;font-variant:normal;font-weight:normal;font-stretch:normal;font-size:25.39999962px;line-height:0.55000001;font-family:'Bauhaus 93';-inkscape-font-specification:'Bauhaus 93, ';fill:#ff9955;stroke:none;stroke-width:0.26458332"
         d="m 109.59777,67.077507 v 12.067481 h -5.03535 V 67.077507 h -3.85713 l 5.82224,-4.304319 c 1.91143,-1.098776 6.91497,4.304319 6.91497,4.304319 l -1.09273,1.114797 z"
         sodipodi:nodetypes="ccccccccc" />
      <path
         sodipodi:nodetypes="cccccscscsccscssc"
         inkscape:connector-curvature="0"
         id="path6228-0"
         style="word-spacing:-0.43920833px;fill:#ff9955;stroke:none;stroke-width:0.15875;stroke-miterlimit:4;stroke-dasharray:none"
         d="m 109.58329,83.999345 -0.004,12.215821 -1.09273,1.114797 -3.89763,-1.196987 -0.0265,-16.987983 4.2392,-0.0074 c 2.87734,-0.005 5.13043,0.65319 6.75927,1.95957 1.93477,1.562695 2.90215,3.683496 2.90215,6.362403 0,2.563151 -0.82682,4.655012 -2.48047,6.275585 -1.90118,1.435216 -1.82178,1.638164 -4.46897,2.364714 -0.29502,0.08097 -0.18069,0.07701 -0.87523,0.04394 l -1.02253,-3.859231 c 0.4546,-0.507599 0.58793,-0.967326 0.8361,-1.061368 0.38966,-0.147661 0.79539,-0.04122 1.10418,-0.103529 0,0 3.03382,-1.064129 3.03382,-3.519793 0,-2.306836 -2.121,-3.600571 -5.00661,-3.600571 z" />
    </g>
    <ellipse
       ry="8.5514917"
       rx="8.2326984"
       cy="254.73218"
       cx="39.007187"
       id="ellipse6183-8"
       style="fill:#ff9955;stroke:#ff9955;stroke-width:0.24372146;stroke-opacity:1" />
    <ellipse
       ry="8.5514917"
       rx="8.2326984"
       cy="271.92886"
       cx="39.413177"
       id="ellipse6183-7-9"
       style="fill:#ff9955;stroke:#ff9955;stroke-width:0.24372146;stroke-opacity:1" />
    <ellipse
       style="fill:#ff9955;stroke:#ff9955;stroke-width:0.24372146;stroke-opacity:1"
       id="ellipse6216-6"
       cx="39.007187"
       cy="254.73218"
       rx="8.2326984"
       ry="8.5514917" />
    <ellipse
       style="fill:#ff9955;stroke:#ff9955;stroke-width:0.24372146;stroke-opacity:1"
       id="ellipse6218-5"
       cx="39.413177"
       cy="271.92886"
       rx="8.2326984"
       ry="8.5514917" />
    <ellipse
       ry="8.5514917"
       rx="8.2326984"
       cy="254.73218"
       cx="39.007187"
       id="ellipse6230-6"
       style="fill:#ff9955;stroke:none;stroke-width:0.24372146;stroke-opacity:1" />
    <ellipse
       ry="8.5514917"
       rx="8.2326984"
       cy="271.92886"
       cx="39.413177"
       id="ellipse6232-5"
       style="fill:#ff9955;stroke:none;stroke-width:0.24372146;stroke-opacity:1" />
    <path
       inkscape:connector-curvature="0"
       id="path6226-7-1"
       style="font-style:normal;font-variant:normal;font-weight:normal;font-stretch:normal;font-size:25.39999962px;line-height:0.55000001;font-family:'Bauhaus 93';-inkscape-font-specification:'Bauhaus 93, ';letter-spacing:0px;word-spacing:0px;fill:#ffccaa;fill-opacity:1;stroke:#ff6600;stroke-width:0.26458332;stroke-opacity:1"
       d="m 16.177069,264.21346 v -12.06748 m 0,0 h -3.85713 v -4.86172 h 12.73721 v 4.86172 h -3.84473 v 12.06748 h -5.03535"
       sodipodi:nodetypes="cccccccccc" />
    <path
       sodipodi:nodetypes="ccccscscsccsssc"
       inkscape:connector-curvature="0"
       id="path6228-9-6"
       style="font-style:normal;font-weight:normal;font-size:10.58333302px;line-height:1.25;font-family:sans-serif;letter-spacing:0px;word-spacing:-0.43920833px;fill:#ffccaa;fill-opacity:1;stroke:#ff6600;stroke-width:0.26458332;stroke-opacity:1"
       d="m 21.197939,269.06782 -0.004,12.21581 -4.99036,-0.0822 -0.0265,-16.98797 4.2392,-0.007 c 2.87734,-0.005 5.13043,0.65319 6.75927,1.95957 1.93477,1.56269 2.90215,3.68349 2.90215,6.3624 0,2.56315 -0.82682,4.655 -2.48047,6.27558 -1.90118,1.43521 -1.82178,1.63816 -4.46897,2.36471 -0.29502,0.081 -0.11053,0.12378 -0.80507,0.0907 l 4e-5,-5.0208 0.84755,-0.0501 c 0,0 3.03382,-1.06413 3.03382,-3.51979 0,-2.30683 -2.121,-3.60057 -5.00661,-3.60057 z" />
    <ellipse
       ry="8.5514917"
       rx="8.2326984"
       cy="255.84695"
       cx="37.914444"
       id="ellipse6230-0-3"
       style="fill:#ffccaa;fill-opacity:1;stroke:#ff6600;stroke-width:0.24372146;stroke-opacity:1" />
    <ellipse
       ry="8.5514917"
       rx="8.0222235"
       cy="273.04367"
       cx="38.32045"
       id="ellipse6232-9-7"
       style="fill:#ffccaa;fill-opacity:1;stroke:#ff6600;stroke-width:0.24372146;stroke-opacity:1" />
    <path
       style="fill:none;fill-opacity:1;stroke:#000000;stroke-width:0.89032602;stroke-linecap:round;stroke-linejoin:round;stroke-miterlimit:4;stroke-dasharray:none;stroke-opacity:1"
       id="path6785"
       sodipodi:type="arc"
       sodipodi:cx="8.2253132"
       sodipodi:cy="247.05928"
       sodipodi:rx="4.7085085"
       sodipodi:ry="3.5127652"
       sodipodi:start="2.0792689"
       sodipodi:end="5.3572145"
       d="m 5.9330058,250.12764 a 4.7085085,3.5127652 0 0 1 -2.4140363,-3.17487 4.7085085,3.5127652 0 0 1 2.6675395,-3.05987 4.7085085,3.5127652 0 0 1 4.868896,0.35896"
       sodipodi:open="true" />
    <path
       style="fill:none;fill-opacity:1;stroke:#000000;stroke-width:0.89032602;stroke-linecap:round;stroke-linejoin:round;stroke-miterlimit:4;stroke-dasharray:none;stroke-opacity:1"
       id="path6785-9"
       sodipodi:type="arc"
       sodipodi:cx="8.1930466"
       sodipodi:cy="256.07388"
       sodipodi:rx="4.708508"
       sodipodi:ry="3.5127649"
       sodipodi:start="2.0792689"
       sodipodi:end="5.3572145"
       d="m 5.9007395,259.14225 a 4.708508,3.5127649 0 0 1 -2.4140362,-3.17487 4.708508,3.5127649 0 0 1 2.6675393,-3.05987 4.708508,3.5127649 0 0 1 4.8688954,0.35895"
       sodipodi:open="true" />
    <path
       style="fill:none;fill-opacity:1;stroke:#000000;stroke-width:0.89032602;stroke-linecap:round;stroke-linejoin:round;stroke-miterlimit:4;stroke-dasharray:none;stroke-opacity:1"
       id="path6785-4"
       sodipodi:type="arc"
       sodipodi:cx="8.4199944"
       sodipodi:cy="265.27731"
       sodipodi:rx="4.708508"
       sodipodi:ry="3.5127649"
       sodipodi:start="2.0792689"
       sodipodi:end="5.3572145"
       d="m 6.1276872,268.34568 a 4.708508,3.5127649 0 0 1 -2.4140361,-3.17487 4.708508,3.5127649 0 0 1 2.6675393,-3.05987 4.708508,3.5127649 0 0 1 4.8688946,0.35896"
       sodipodi:open="true" />
    <path
       style="fill:none;fill-opacity:1;stroke:#000000;stroke-width:0.89032602;stroke-linecap:round;stroke-linejoin:round;stroke-miterlimit:4;stroke-dasharray:none;stroke-opacity:1"
       id="path6785-6"
       sodipodi:type="arc"
       sodipodi:cx="8.4576302"
       sodipodi:cy="275.68613"
       sodipodi:rx="4.708508"
       sodipodi:ry="3.5127649"
       sodipodi:start="2.0792689"
       sodipodi:end="5.3572145"
       d="m 6.165323,278.75449 a 4.708508,3.5127649 0 0 1 -2.4140361,-3.17487 4.708508,3.5127649 0 0 1 2.6675393,-3.05987 4.708508,3.5127649 0 0 1 4.8688948,0.35896"
       sodipodi:open="true" />
    <path
       style="fill:none;fill-opacity:1;stroke:#000000;stroke-width:0.89032602;stroke-linecap:round;stroke-linejoin:round;stroke-miterlimit:4;stroke-dasharray:none;stroke-opacity:1"
       id="path6785-90"
       sodipodi:type="arc"
       sodipodi:cx="8.362278"
       sodipodi:cy="285.76828"
       sodipodi:rx="4.708508"
       sodipodi:ry="3.5127649"
       sodipodi:start="2.0792689"
       sodipodi:end="5.3572145"
       d="m 6.0699709,288.83664 a 4.708508,3.5127649 0 0 1 -2.4140361,-3.17487 4.708508,3.5127649 0 0 1 2.6675392,-3.05987 4.708508,3.5127649 0 0 1 4.868895,0.35896"
       sodipodi:open="true" />
    <path
       style="fill:none;fill-opacity:1;stroke:url(#radialGradient6901);stroke-width:0.89032602;stroke-linecap:round;stroke-linejoin:round;stroke-miterlimit:4;stroke-dasharray:none;stroke-opacity:1"
       id="path6785-0"
       sodipodi:type="arc"
       sodipodi:cx="8.2253113"
       sodipodi:cy="247.05928"
       sodipodi:rx="4.708508"
       sodipodi:ry="3.5127649"
       sodipodi:start="2.0792689"
       sodipodi:end="5.3572145"
       d="m 5.9330042,250.12764 a 4.708508,3.5127649 0 0 1 -2.4140361,-3.17487 4.708508,3.5127649 0 0 1 2.6675392,-3.05987 4.708508,3.5127649 0 0 1 4.8688947,0.35896"
       sodipodi:open="true" />
    <path
       style="fill:none;fill-opacity:1;stroke:url(#radialGradient6903);stroke-width:0.89032602;stroke-linecap:round;stroke-linejoin:round;stroke-miterlimit:4;stroke-dasharray:none;stroke-opacity:1"
       id="path6785-9-2"
       sodipodi:type="arc"
       sodipodi:cx="8.1930447"
       sodipodi:cy="256.07388"
       sodipodi:rx="4.7085075"
       sodipodi:ry="3.5127647"
       sodipodi:start="2.0792689"
       sodipodi:end="5.3572145"
       d="m 5.9007378,259.14224 a 4.7085075,3.5127647 0 0 1 -2.4140359,-3.17486 4.7085075,3.5127647 0 0 1 2.667539,-3.05987 4.7085075,3.5127647 0 0 1 4.8688951,0.35896"
       sodipodi:open="true" />
    <path
       style="fill:none;fill-opacity:1;stroke:url(#radialGradient6905);stroke-width:0.89032602;stroke-linecap:round;stroke-linejoin:round;stroke-miterlimit:4;stroke-dasharray:none;stroke-opacity:1"
       id="path6785-4-1"
       sodipodi:type="arc"
       sodipodi:cx="8.4199924"
       sodipodi:cy="265.27731"
       sodipodi:rx="4.7085075"
       sodipodi:ry="3.5127647"
       sodipodi:start="2.0792689"
       sodipodi:end="5.3572145"
       d="m 6.1276856,268.34568 a 4.7085075,3.5127647 0 0 1 -2.4140359,-3.17487 4.7085075,3.5127647 0 0 1 2.667539,-3.05987 4.7085075,3.5127647 0 0 1 4.8688943,0.35896"
       sodipodi:open="true" />
    <path
       style="fill:none;fill-opacity:1;stroke:url(#radialGradient6907);stroke-width:0.89032602;stroke-linecap:round;stroke-linejoin:round;stroke-miterlimit:4;stroke-dasharray:none;stroke-opacity:1"
       id="path6785-6-8"
       sodipodi:type="arc"
       sodipodi:cx="8.4576302"
       sodipodi:cy="275.68613"
       sodipodi:rx="4.7085075"
       sodipodi:ry="3.5127647"
       sodipodi:start="2.0792689"
       sodipodi:end="5.3572145"
       d="m 6.1653233,278.75449 a 4.7085075,3.5127647 0 0 1 -2.4140359,-3.17487 4.7085075,3.5127647 0 0 1 2.667539,-3.05987 4.7085075,3.5127647 0 0 1 4.8688946,0.35896"
       sodipodi:open="true" />
    <path
       style="fill:none;fill-opacity:1;stroke:url(#radialGradient6909);stroke-width:0.89032602;stroke-linecap:round;stroke-linejoin:round;stroke-miterlimit:4;stroke-dasharray:none;stroke-opacity:1"
       id="path6785-90-7"
       sodipodi:type="arc"
       sodipodi:cx="8.3622761"
       sodipodi:cy="285.76828"
       sodipodi:rx="4.7085075"
       sodipodi:ry="3.5127647"
       sodipodi:start="2.0792689"
       sodipodi:end="5.3572145"
       d="m 6.0699692,288.83664 a 4.7085075,3.5127647 0 0 1 -2.4140359,-3.17487 4.7085075,3.5127647 0 0 1 2.667539,-3.05987 4.7085075,3.5127647 0 0 1 4.8688947,0.35896"
       sodipodi:open="true" />
    <ellipse
       style="fill:#5f8dd3;fill-opacity:1;stroke:#ff6600;stroke-width:0.226;stroke-linecap:round;stroke-linejoin:round;stroke-miterlimit:4;stroke-dasharray:none;stroke-opacity:1"
       id="path957"
       cx="37.61417"
       cy="255.73288"
       rx="4.7243099"
       ry="4.9909196" />
    <path
       sodipodi:nodetypes="ccccccccccccccc"
       inkscape:connector-curvature="0"
       id="path974"
       d="m 37.833514,259.37102 -0.518247,0.50946 -0.23151,-0.0744 -0.545637,-0.43327 -2.378127,-4.02888 -0.578177,-0.0856 0.518247,-0.50946 0.749758,-0.43504 2.318205,3.76373 v 0 l 2.498818,-5.03031 0.518247,-0.50946 0.749758,-0.43504 0.582776,1.13243 z"
       inkscape:transform-center-y="-0.46023029"
       inkscape:transform-center-x="-0.039529795"
       style="fill:#ff9955;stroke:none;stroke-width:0.19503678;stroke-opacity:1" />
    <path
       sodipodi:nodetypes="cccccccccccc"
       inkscape:connector-curvature="0"
       id="path974-6"
       d="m 37.315267,259.88048 -0.749757,0.43505 -0.545637,-0.43328 -2.378127,-4.02888 -0.05993,-0.59511 0.749758,-0.43504 2.318205,3.76373 v 0 l 3.017065,-5.53977 0.749758,-0.43503 0.582776,1.13242 z"
       inkscape:transform-center-y="-0.46023029"
       inkscape:transform-center-x="-0.039529795"
       style="fill:#ffffff;stroke:#ff6600;stroke-width:0.095;stroke-miterlimit:4;stroke-dasharray:none;stroke-opacity:1" />
    <ellipse
       style="fill:#5f8dd3;fill-opacity:1;stroke:#ff6600;stroke-width:0.226;stroke-linecap:round;stroke-linejoin:round;stroke-miterlimit:4;stroke-dasharray:none;stroke-opacity:1"
       id="path957-5"
       cx="38.166092"
       cy="273.42682"
       rx="4.7243099"
       ry="4.9909196" />
    <path
       sodipodi:nodetypes="ccccccccccccccc"
       inkscape:connector-curvature="0"
       id="path974-61"
       d="m 38.385433,277.06497 -0.518247,0.50946 -0.23151,-0.0744 -0.545637,-0.43328 -2.378127,-4.02888 -0.578177,-0.0857 0.518247,-0.50945 0.749758,-0.43505 2.318205,3.76373 v 0 l 2.498818,-5.0303 0.518247,-0.50946 0.749758,-0.43504 0.582776,1.13242 z"
       inkscape:transform-center-y="-0.46023029"
       inkscape:transform-center-x="-0.039529795"
       style="fill:#ff9955;stroke:none;stroke-width:0.19503678;stroke-opacity:1" />
    <path
       sodipodi:nodetypes="cccccccccccc"
       inkscape:connector-curvature="0"
       id="path974-6-0"
       d="m 37.867186,277.57443 -0.749757,0.43504 -0.545637,-0.43327 -2.378127,-4.02888 -0.05993,-0.59511 0.749758,-0.43504 2.318205,3.76373 v 0 l 3.017065,-5.53977 0.749758,-0.43503 0.582776,1.13242 z"
       inkscape:transform-center-y="-0.46023029"
       inkscape:transform-center-x="-0.039529795"
       style="fill:#ffffff;stroke:#ff6600;stroke-width:0.095;stroke-miterlimit:4;stroke-dasharray:none;stroke-opacity:1" />
    <text
       xml:space="preserve"
       style="font-style:normal;font-weight:normal;font-size:10.58333302px;line-height:1.25;font-family:sans-serif;letter-spacing:0px;word-spacing:0px;fill:#000000;fill-opacity:1;stroke:#ffffff;stroke-width:0.16500001;stroke-miterlimit:4;stroke-dasharray:none;stroke-opacity:1"
       x="21.281338"
       y="290.54544"
       id="text1022"><tspan
         sodipodi:role="line"
         id="tspan1020"
         x="21.281338"
         y="290.54544"
         style="font-style:normal;font-variant:normal;font-weight:normal;font-stretch:normal;font-size:9.87777805px;font-family:'Kristen ITC';-inkscape-font-specification:'Kristen ITC';stroke:#ffffff;stroke-width:0.16500001;stroke-miterlimit:4;stroke-dasharray:none;stroke-opacity:1">List</tspan></text>
  </g>
</svg>
